<?xml version="1.0" standalone="no"?>
<!DOCTYPE svg PUBLIC "-//W3C//DTD SVG 20010904//EN"
 "http://www.w3.org/TR/2001/REC-SVG-20010904/DTD/svg10.dtd">
<svg version="1.0" xmlns="http://www.w3.org/2000/svg"
 width="500.000000pt" height="500.000000pt" viewBox="0 0 500.000000 500.000000"
 preserveAspectRatio="xMidYMid meet">

<g transform="translate(0.000000,500.000000) scale(0.100000,-0.100000)"
fill="#000000" stroke="none">
<path d="M2575 4848 c-22 -5 -78 -20 -125 -33 -47 -13 -101 -26 -120 -29 -60
-11 -201 -88 -221 -121 -27 -43 -24 -66 16 -132 19 -32 35 -62 35 -66 0 -5 25
-60 55 -122 30 -63 55 -120 55 -126 0 -6 18 -44 40 -84 41 -74 50 -115 26
-115 -7 0 -42 13 -77 29 -35 15 -89 34 -119 41 -30 6 -71 16 -91 21 -63 16
-117 10 -198 -21 -69 -27 -87 -40 -163 -118 -75 -76 -93 -102 -142 -203 -58
-119 -124 -309 -153 -434 -15 -68 -20 -99 -41 -250 -14 -93 -38 -217 -58 -285
-34 -123 -127 -408 -145 -447 -30 -68 -39 -60 -94 72 -54 134 -78 169 -158
232 -135 108 -233 154 -357 165 -108 10 -141 6 -214 -26 -53 -24 -142 -110
-173 -170 -24 -44 -24 -152 1 -197 23 -42 145 -148 205 -178 158 -81 315 -207
378 -306 14 -22 49 -76 78 -120 28 -44 61 -96 73 -116 28 -47 119 -132 157
-146 17 -7 62 -21 100 -33 64 -19 74 -25 109 -73 22 -28 45 -70 51 -92 20 -64
62 -146 103 -200 53 -70 96 -83 275 -84 137 -1 192 8 312 50 17 6 75 26 130
45 l100 35 503 2 c410 2 506 0 515 -11 26 -31 97 -70 158 -87 56 -14 75 -15
120 -6 109 24 229 110 318 229 28 37 68 90 90 118 35 45 77 116 158 264 14 24
37 80 51 125 42 126 33 270 -39 628 -9 49 -9 66 6 110 41 126 106 228 216 338
l38 38 133 -2 c149 -1 185 10 243 75 49 54 58 79 63 165 4 78 3 85 -33 163
-27 56 -50 90 -79 113 -69 56 -160 104 -247 130 -77 23 -92 25 -174 17 -147
-14 -211 -38 -293 -108 -29 -25 -69 -69 -88 -98 -19 -29 -41 -55 -50 -58 -18
-7 -15 -12 -89 219 -59 181 -165 344 -257 391 -85 44 -182 55 -237 28 -31 -16
-34 -15 -62 5 -19 14 -55 25 -106 31 -92 12 -103 22 -103 94 0 28 -5 78 -10
111 -16 92 -51 313 -60 375 -4 30 -14 82 -23 115 -9 33 -18 72 -21 87 -4 18
-16 29 -37 37 -38 13 -197 12 -254 -1z m272 -598 c63 0 68 -7 83 -111 12 -84
0 -109 -55 -109 -42 0 -220 -27 -309 -47 -123 -27 -115 -31 -165 80 -35 80
-35 80 74 127 28 12 64 27 80 32 42 15 196 37 220 32 11 -2 43 -4 72 -4z
m-272 -735 c144 -84 167 -288 48 -416 -62 -67 -112 -89 -199 -89 -100 0 -139
14 -194 69 -87 87 -108 164 -70 263 21 57 93 148 134 170 78 42 212 44 281 3z
m856 -71 c8 -8 23 -14 32 -14 24 0 85 -57 110 -104 18 -34 22 -58 22 -133 0
-86 -2 -93 -31 -135 -42 -57 -137 -108 -202 -108 -110 0 -199 51 -238 134 -40
87 -26 176 45 280 60 86 203 130 262 80z m-608 -746 l84 -41 74 31 c149 61
217 65 243 14 17 -35 29 -199 15 -223 -5 -11 -18 -19 -27 -19 -10 0 -78 29
-152 65 -74 36 -140 65 -148 65 -8 0 -52 -22 -98 -50 -46 -27 -88 -50 -94 -50
-5 0 -10 9 -10 21 0 20 28 51 87 96 l28 21 -35 19 c-45 24 -93 70 -85 83 11
17 32 11 118 -32z"/>
<path d="M2393 3449 c-59 -11 -97 -42 -132 -109 -35 -66 -38 -88 -15 -133 39
-76 88 -107 171 -107 72 0 118 23 155 76 59 83 43 198 -35 255 -42 30 -67 34
-144 18z"/>
<path d="M3288 3352 c-54 -36 -98 -114 -98 -174 0 -107 143 -173 245 -113 73
42 95 128 56 218 -27 63 -62 87 -125 87 -32 0 -61 -7 -78 -18z"/>
<path d="M3110 2673 c-45 -5 -85 -35 -77 -57 4 -9 19 -21 34 -27 15 -6 40 -17
55 -25 48 -25 58 -19 58 35 0 32 -6 55 -16 65 -8 9 -16 15 -17 14 -1 -1 -18
-3 -37 -5z"/>
<path d="M2100 747 c-27 -9 -36 -18 -38 -39 -3 -22 2 -29 22 -34 32 -8 38 -25
30 -96 -7 -62 -20 -78 -67 -78 -24 0 -57 -27 -57 -48 0 -17 34 -32 74 -32 19
0 36 -6 39 -12 5 -16 -17 -82 -43 -126 -36 -61 -17 -127 27 -91 17 15 96 169
106 209 6 22 9 23 92 17 48 -2 91 -9 96 -14 5 -5 14 -56 19 -112 10 -111 19
-131 56 -131 32 0 37 25 29 137 -8 104 -5 113 46 113 27 0 49 16 49 37 0 21
-38 53 -64 53 -34 0 -43 16 -49 95 -5 70 -5 70 26 90 42 27 42 58 2 66 -54 12
-358 9 -395 -4z m288 -150 c4 -95 -2 -100 -101 -95 -91 6 -97 10 -97 85 0 84
-1 84 104 81 l91 -3 3 -68z"/>
<path d="M2952 728 c-57 -12 -77 -43 -68 -103 6 -39 5 -45 -11 -45 -30 0 -41
13 -52 59 -5 24 -14 48 -20 54 -20 20 -46 -7 -52 -53 -5 -39 -22 -63 -52 -73
-18 -6 1 -37 30 -48 35 -13 43 -26 43 -67 0 -25 -6 -35 -25 -44 -26 -12 -41
-41 -30 -58 3 -5 20 -10 36 -10 21 0 32 -7 40 -24 11 -23 3 -47 -33 -98 -10
-14 -9 -21 4 -35 14 -14 22 -15 43 -5 42 19 65 69 64 135 -2 54 1 61 27 83 16
13 32 23 35 24 15 0 79 -31 79 -39 0 -4 -19 -12 -42 -17 -29 -6 -44 -15 -46
-27 -5 -25 16 -47 44 -47 32 0 32 -29 -1 -60 -31 -30 -32 -55 -1 -75 20 -13
34 -14 92 -5 38 6 101 10 139 8 67 -3 70 -2 73 20 5 31 -16 80 -38 92 -13 7
-25 4 -43 -10 -33 -26 -107 -38 -107 -17 0 37 34 59 107 67 83 9 93 13 93 45
0 29 -16 35 -91 35 -32 0 -59 4 -59 9 0 5 26 15 57 22 63 15 78 36 48 69 -16
17 -15 19 7 31 33 17 44 36 58 95 16 64 8 97 -25 112 -31 14 -260 14 -323 0z
m166 -81 c2 -10 -4 -30 -14 -44 l-17 -26 -19 26 c-25 35 -54 35 -62 1 -10 -40
-41 -28 -41 16 0 34 1 35 45 41 73 10 104 6 108 -14z m110 -7 c1 -9 -4 -24
-12 -35 -20 -27 -41 -7 -32 30 7 29 38 32 44 5z m-265 -126 c20 5 57 -9 57
-22 0 -4 -19 -17 -42 -29 -40 -21 -46 -22 -83 -9 -48 17 -58 46 -24 70 21 14
25 14 47 0 13 -9 33 -13 45 -10z"/>
</g>
</svg>
